# xmcd
#
# Track frame offsets:
#	150
#	20060
#	39150
#	64450
#	80010
#	102687
#	128035
#	150850
#	171062
#	189400
#	208275
#	225022
#	244100
#	266297
#	282992
#	304545
#
# Disc length: 4315 seconds
#
# Revision: 7
# Processed by: cddbd v1.5.2PL0 Copyright (c) Steve Scherf et al.
# Submitted via: audiograbber 1.83.01
#
DISCID=d010d910
DTITLE=Rappin' 4-Tay - Off Parole
DYEAR=1996
DGENRE=Rap
TTITLE0=Rappin' 4-Tay - I paid my dues
TTITLE1=Rappin' 4-Tay feat. Lil Fly - New Trump
TTITLE2=Rappin' 4-Tay - A lil' Some'em Some'em
TTITLE3=Rappin' 4-Tay - Check ya self
TTITLE4=Rappin' 4-Tay feat. Passion - Ain't no playa (Playaz Shit)
TTITLE5=Rappin' 4-Tay feat. Too Short and MC Breed - Never Talk Down
TTITLE6=Rappin' 4-Tay - 25-2-Life
TTITLE7=Rappin' 4-Tay feat. Franky J. - Boogie Bang Bang
TTITLE8=Rappin' 4-Tay - Comin' back
TTITLE9=Rappin' 4-Tay - Hala at a playa
TTITLE10=Rappin' 4-Tay feat. JT The Bigga Figga, San Quinn and Seff Tha Gaffla - 
TTITLE10=Game on the shelf
TTITLE11=Rappin' 4-Tay - Off Parole
TTITLE12=Rappin' 4-Tay - Where's the party
TTITLE13=Rappin' 4-Tay feat. Jasmyne Forte - Phat like that
TTITLE14=Rappin' 4-Tay feat. Primo, T-Lowe, D-Moe, Nate The Banksta and Hugh E. M
TTITLE14=C - Still phuckin with my fol
TTITLE15=Rappin' 4-Tay feat. Passion - Ain't no playa (Radio)
EXTD=
EXTT0=
EXTT1=
EXTT2=
EXTT3=
EXTT4=
EXTT5=
EXTT6=
EXTT7=
EXTT8=
EXTT9=
EXTT10=
EXTT11=
EXTT12=
EXTT13=
EXTT14=
EXTT15=
PLAYORDER=
